<?xml version="1.0" encoding="UTF-8"?>
<svg id="Layer_1" xmlns="http://www.w3.org/2000/svg" version="1.1" viewBox="0 0 1080 1080">
  <!-- Generator: Adobe Illustrator 29.6.0, SVG Export Plug-In . SVG Version: 2.1.1 Build 207)  -->
  <defs>
    <style>
      .st0 {
        fill: #8c0afa;
      }
    </style>
  </defs>
  <path class="st0" d="M490.7,550.2c-10.5-3.1-20.5-6.1-28.5-10.5-4.5-2.5-7.3-6.7-7.4-11.1,0-3.8,2-7.2,5.9-9.4,12.7-7.4,35.7-2.4,48.4,6.7l11.9,7.9,23.2-23.1-.6-.8c-18.7-24-67.6-33.9-100.6-20.2-20.8,8.6-30.8,25-28.2,46.2,1.3,10.4,9.6,22.5,19.9,28.9,9.8,6.1,22.4,9.6,34.7,13,10.6,2.9,20.6,5.7,28.6,10,5.4,2.9,8.8,8.2,8.7,13.3-.2,4.2-2.7,7.8-7,9.7-19.6,8.8-52.8-4.6-66.2-21.7l-.8-1-24.6,26.9.4.7c2.9,5.6,19.9,17.9,25.4,20.7,12.4,6.5,28.9,10.1,45.5,10.1,20.1,0,40.3-5.3,53.5-17.5,9.2-8.4,18.2-23.2,9.4-46.1-7.6-19.7-29.7-26.3-51-32.7Z"/>
  <path class="st0" d="M776.3,607.6v-171.2h-38.4v174.4c0,7.6,1.4,15.2,4.6,22.1h0c9.1,15.9,31.2,13.5,48.3,12v-25.6s-14.5,3.2-14.5-11.7Z"/>
  <path class="st0" d="M885.8,484.1c-44.8,0-81.2,36.4-81.2,81.3s36.4,81.2,81.2,81.2,81.3-36.4,81.3-81.2-36.5-81.3-81.3-81.3ZM885.8,609.7c-24.4,0-44.3-19.9-44.3-44.3s19.9-44.3,44.3-44.3,44.3,19.9,44.3,44.3-19.9,44.3-44.3,44.3Z"/>
  <path class="st0" d="M636.5,484.8c-43.6,0-79,36.2-79,80.6s35.5,80.6,79,80.6,50.1-12.9,64.9-34.6l-29.4-20.1c-8.1,11.9-21.4,19.1-35.5,19.1s-33.2-11.2-39.9-27.2h118.9v-17.8c0-44.4-35.5-80.6-79-80.6ZM596.6,547.6c6.7-16,22-27.2,39.9-27.2s33.2,11.2,39.9,27.2h-79.8Z"/>
  <path class="st0" d="M255.1,490.3c0-6.3,2.5-12,6.8-16.2,4.3-4.2,9.9-6.8,16.2-6.8h1.2c6.3,0,12,2.5,16.2,6.8,4.2,4.3,6.8,9.9,6.8,16.2v49.8h47.6v-49.8c0-19.4-8-37.2-20.7-49.9-12.7-12.7-30.5-20.7-49.9-20.7h-1.2c-19.4,0-37.2,8-49.9,20.7-12.7,12.7-20.7,30.5-20.7,49.9v49.9h7.3c22.2,0,40.3-18,40.3-40.3v-9.6Z"/>
  <path class="st0" d="M254.9,590c0,6.3-2.5,12-6.8,16.2-4.3,4.2-9.9,6.8-16.2,6.8h-1.2c-6.3,0-12-2.5-16.2-6.8-4.2-4.3-6.8-9.9-6.8-16.2v-49.9h-47.6v49.9c0,19.4,8,37.2,20.7,49.9,12.7,12.7,30.5,20.7,49.9,20.7h1.2c19.4,0,37.2-8,49.9-20.7,12.7-12.7,20.7-30.5,20.7-49.9v-49.9h-7.3c-22.2,0-40.3,3.8-40.3,26.1v23.9Z"/>
  <path class="st0" d="M112.4,491.1v25.3c0,13.1,10.7,23.8,23.8,23.8s23.8-10.7,23.8-23.8v-25.3c0-13.1-10.7-23.8-23.8-23.8s-23.8,10.7-23.8,23.8Z"/>
</svg>